<svg width="58" height="58" viewBox="0 0 58 58" fill="none" xmlns="http://www.w3.org/2000/svg">
<path fill-rule="evenodd" clip-rule="evenodd" d="M29 3.625C22.2701 3.625 15.8159 6.29843 11.0572 11.0572C6.29843 15.8159 3.625 22.2701 3.625 29C3.625 35.7299 6.29843 42.1841 11.0572 46.9428C15.8159 51.7016 22.2701 54.375 29 54.375C35.7299 54.375 42.1841 51.7016 46.9428 46.9428C51.7016 42.1841 54.375 35.7299 54.375 29C54.375 22.2701 51.7016 15.8159 46.9428 11.0572C42.1841 6.29843 35.7299 3.625 29 3.625ZM29 58C21.3087 58 13.9325 54.9447 8.4939 49.5061C3.05535 44.0675 2.21087e-06 36.6913 2.54707e-06 29C2.88326e-06 21.3087 3.05535 13.9325 8.4939 8.4939C13.9325 3.05535 21.3087 -1.60383e-06 29 -1.26763e-06C36.6913 -9.31434e-07 44.0675 3.05535 49.5061 8.4939C54.9447 13.9325 58 21.3087 58 29C58 36.6913 54.9446 44.0675 49.5061 49.5061C44.0675 54.9447 36.6913 58 29 58ZM41.6875 30.8125C42.1682 30.8125 42.6292 30.6215 42.9691 30.2816C43.309 29.9417 43.5 29.4807 43.5 29C43.5 28.5193 43.309 28.0583 42.9691 27.7184C42.6292 27.3785 42.1682 27.1875 41.6875 27.1875L20.6879 27.1875L28.4708 19.4082C28.8111 19.0679 29.0023 18.6063 29.0023 18.125C29.0023 17.6437 28.8111 17.1821 28.4708 16.8417C28.1304 16.5014 27.6688 16.3102 27.1875 16.3102C26.7062 16.3102 26.2446 16.5014 25.9043 16.8417L15.0292 27.7167C14.8605 27.8851 14.7265 28.0851 14.6352 28.3053C14.5438 28.5255 14.4968 28.7616 14.4968 29C14.4968 29.2384 14.5438 29.4745 14.6352 29.6947C14.7265 29.9149 14.8605 30.1149 15.0292 30.2833L25.9042 41.1583C26.2446 41.4986 26.7062 41.6898 27.1875 41.6898C27.6688 41.6898 28.1304 41.4986 28.4708 41.1583C28.8111 40.8179 29.0023 40.3563 29.0023 39.875C29.0023 39.3937 28.8111 38.9321 28.4708 38.5917L20.6879 30.8125L41.6875 30.8125Z" fill="#C9C9C9"/>
</svg>
