<svg width="58" height="58" viewBox="0 0 58 58" fill="none" xmlns="http://www.w3.org/2000/svg">
<path fill-rule="evenodd" clip-rule="evenodd" d="M29 54.375C35.7299 54.375 42.1841 51.7016 46.9428 46.9428C51.7016 42.1841 54.375 35.7299 54.375 29C54.375 22.2701 51.7016 15.8159 46.9428 11.0572C42.1841 6.29843 35.7299 3.625 29 3.625C22.2701 3.625 15.8159 6.29843 11.0572 11.0572C6.29843 15.8159 3.625 22.2701 3.625 29C3.625 35.7299 6.29843 42.1841 11.0572 46.9428C15.8159 51.7016 22.2701 54.375 29 54.375ZM29 3.45822e-07C36.6913 4.37539e-07 44.0675 3.05535 49.5061 8.4939C54.9447 13.9325 58 21.3087 58 29C58 36.6913 54.9447 44.0675 49.5061 49.5061C44.0675 54.9447 36.6913 58 29 58C21.3087 58 13.9325 54.9447 8.4939 49.5061C3.05535 44.0675 2.54104e-07 36.6913 3.45822e-07 29C4.37539e-07 21.3087 3.05535 13.9325 8.4939 8.4939C13.9325 3.05535 21.3087 2.54104e-07 29 3.45822e-07ZM16.3125 27.1875C15.8318 27.1875 15.3708 27.3785 15.0309 27.7184C14.691 28.0583 14.5 28.5193 14.5 29C14.5 29.4807 14.691 29.9417 15.0309 30.2816C15.3708 30.6215 15.8318 30.8125 16.3125 30.8125L37.3121 30.8125L29.5292 38.5917C29.1889 38.9321 28.9977 39.3937 28.9977 39.875C28.9977 40.3563 29.1889 40.8179 29.5292 41.1583C29.8696 41.4986 30.3312 41.6898 30.8125 41.6898C31.2938 41.6898 31.7554 41.4986 32.0957 41.1583L42.9707 30.2833C43.1395 30.1149 43.2735 29.9149 43.3648 29.6947C43.4562 29.4745 43.5032 29.2384 43.5032 29C43.5032 28.7616 43.4562 28.5255 43.3648 28.3053C43.2735 28.0851 43.1395 27.8851 42.9707 27.7167L32.0957 16.8418C31.7554 16.5014 31.2938 16.3102 30.8125 16.3102C30.3312 16.3102 29.8696 16.5014 29.5292 16.8418C29.1889 17.1821 28.9977 17.6437 28.9977 18.125C28.9977 18.6063 29.1889 19.0679 29.5292 19.4082L37.3121 27.1875L16.3125 27.1875Z" fill="#C9C9C9"/>
</svg>
