<svg width="87" height="24" viewBox="0 0 87 24" fill="none" xmlns="http://www.w3.org/2000/svg">
<path d="M0.48 23V21.016C2.03733 21.2293 3.2 20.7493 3.968 19.576C4.75733 18.4027 5.152 16.2267 5.152 13.048V0.599998H19.68V23H17.44V2.712H7.392V13.112C7.392 15.1387 7.232 16.8347 6.912 18.2C6.592 19.5653 6.112 20.6 5.472 21.304C4.85333 22.008 4.13867 22.488 3.328 22.744C2.53867 23 1.58933 23.0853 0.48 23ZM43.338 20.024C41.098 22.264 38.3567 23.384 35.114 23.384C31.8713 23.384 29.13 22.264 26.89 20.024C24.65 17.7413 23.53 15 23.53 11.8C23.53 8.57867 24.65 5.848 26.89 3.608C29.13 1.34667 31.8713 0.216 35.114 0.216C38.3567 0.216 41.098 1.34667 43.338 3.608C45.578 5.848 46.698 8.57867 46.698 11.8C46.698 15 45.578 17.7413 43.338 20.024ZM25.77 11.8C25.77 14.4453 26.666 16.6747 28.458 18.488C30.25 20.3013 32.4687 21.208 35.114 21.208C37.7593 21.208 39.978 20.3013 41.77 18.488C43.562 16.6747 44.458 14.4453 44.458 11.8C44.458 9.176 43.562 6.95733 41.77 5.144C39.978 3.30933 37.7593 2.392 35.114 2.392C32.4687 2.392 30.25 3.30933 28.458 5.144C26.666 6.95733 25.77 9.176 25.77 11.8ZM50.5288 0.599998H63.0088V2.712H52.7688V23H50.5288V0.599998ZM83.1505 20.024C80.9105 22.264 78.1692 23.384 74.9265 23.384C71.6838 23.384 68.9425 22.264 66.7025 20.024C64.4625 17.7413 63.3425 15 63.3425 11.8C63.3425 8.57867 64.4625 5.848 66.7025 3.608C68.9425 1.34667 71.6838 0.216 74.9265 0.216C78.1692 0.216 80.9105 1.34667 83.1505 3.608C85.3905 5.848 86.5105 8.57867 86.5105 11.8C86.5105 15 85.3905 17.7413 83.1505 20.024ZM65.5825 11.8C65.5825 14.4453 66.4785 16.6747 68.2705 18.488C70.0625 20.3013 72.2812 21.208 74.9265 21.208C77.5718 21.208 79.7905 20.3013 81.5825 18.488C83.3745 16.6747 84.2705 14.4453 84.2705 11.8C84.2705 9.176 83.3745 6.95733 81.5825 5.144C79.7905 3.30933 77.5718 2.392 74.9265 2.392C72.2812 2.392 70.0625 3.30933 68.2705 5.144C66.4785 6.95733 65.5825 9.176 65.5825 11.8Z" fill="black"/>
</svg>
