<svg width="43" height="22" viewBox="0 0 43 22" fill="none" xmlns="http://www.w3.org/2000/svg">
<path d="M5.0641 9.314C6.2521 9.314 7.2541 9.668 8.0701 10.376C8.8981 11.072 9.3121 12.038 9.3121 13.274C9.3121 14.498 8.8921 15.464 8.0521 16.172C7.2121 16.88 6.1921 17.234 4.9921 17.234C4.0321 17.234 3.1741 17.006 2.4181 16.55C1.6621 16.082 1.1341 15.41 0.834102 14.534L2.2561 13.724C2.4241 14.336 2.7481 14.804 3.2281 15.128C3.7081 15.44 4.2961 15.596 4.9921 15.596C5.7841 15.596 6.4261 15.392 6.9181 14.984C7.4101 14.576 7.6561 14.006 7.6561 13.274C7.6561 12.542 7.4101 11.972 6.9181 11.564C6.4261 11.144 5.7961 10.934 5.0281 10.934H1.4641L1.9321 4.4H8.8261V5.966H3.4441L3.2281 9.314H5.0641ZM11.804 17.198C11.48 17.198 11.204 17.084 10.976 16.856C10.748 16.628 10.634 16.352 10.634 16.028C10.634 15.704 10.748 15.428 10.976 15.2C11.204 14.972 11.48 14.858 11.804 14.858C12.14 14.858 12.416 14.972 12.632 15.2C12.86 15.428 12.974 15.704 12.974 16.028C12.974 16.352 12.86 16.628 12.632 16.856C12.416 17.084 12.14 17.198 11.804 17.198ZM22.71 15.452C21.858 16.64 20.664 17.234 19.128 17.234C17.592 17.234 16.398 16.64 15.546 15.452C14.694 14.264 14.268 12.68 14.268 10.7C14.268 8.72 14.694 7.136 15.546 5.948C16.398 4.76 17.592 4.166 19.128 4.166C20.664 4.166 21.858 4.76 22.71 5.948C23.562 7.136 23.988 8.72 23.988 10.7C23.988 12.68 23.562 14.264 22.71 15.452ZM16.77 14.318C17.322 15.17 18.108 15.596 19.128 15.596C20.148 15.596 20.934 15.17 21.486 14.318C22.05 13.466 22.332 12.26 22.332 10.7C22.332 9.14 22.05 7.934 21.486 7.082C20.934 6.218 20.148 5.786 19.128 5.786C18.108 5.786 17.322 6.212 16.77 7.064C16.218 7.916 15.942 9.128 15.942 10.7C15.942 12.26 16.218 13.466 16.77 14.318Z" fill="black"/>
<path d="M35.5 3.5L37.1839 8.68237H42.6329L38.2245 11.8853L39.9084 17.0676L35.5 13.8647L31.0916 17.0676L32.7755 11.8853L28.3671 8.68237H33.8161L35.5 3.5Z" fill="#FFD12E"/>
</svg>
