<svg width="1149" height="174" viewBox="0 0 1149 174" fill="none" xmlns="http://www.w3.org/2000/svg">
<path d="M1 1L11.5944 4.16401C382.46 114.923 777.757 113.822 1148 1V1" stroke="#BFBFBF"/>
<circle cx="139" cy="52" r="41" fill="#505050"/>
<circle cx="592" cy="93" r="41" fill="#505050"/>
<circle cx="984" cy="52" r="41" fill="#505050"/>
<path d="M129.34 62.504C126.196 62.504 123.724 61.316 121.924 58.94C120.148 56.516 119.26 53.336 119.26 49.4C119.26 45.464 120.148 42.296 121.924 39.896C123.724 37.496 126.196 36.296 129.34 36.296C132.532 36.296 135.004 37.496 136.756 39.896C138.532 42.296 139.42 45.464 139.42 49.4C139.42 53.336 138.532 56.516 136.756 58.94C135.004 61.316 132.532 62.504 129.34 62.504ZM134.488 49.4C134.488 46.712 134.044 44.66 133.156 43.244C132.292 41.828 131.02 41.12 129.34 41.12C127.66 41.12 126.388 41.828 125.524 43.244C124.66 44.66 124.228 46.712 124.228 49.4C124.228 52.088 124.66 54.14 125.524 55.556C126.388 56.948 127.66 57.644 129.34 57.644C131.02 57.644 132.292 56.936 133.156 55.52C134.044 54.104 134.488 52.064 134.488 49.4ZM147.883 45.98H150.475C152.923 45.98 154.963 46.712 156.595 48.176C158.251 49.616 159.079 51.632 159.079 54.224C159.079 56.816 158.203 58.844 156.451 60.308C154.747 61.772 152.623 62.504 150.079 62.504C148.015 62.504 146.203 62.048 144.643 61.136C143.107 60.2 141.991 58.856 141.295 57.104L145.543 54.62C146.143 56.636 147.655 57.644 150.079 57.644C151.351 57.644 152.335 57.344 153.031 56.744C153.751 56.12 154.111 55.28 154.111 54.224C154.111 53.192 153.763 52.364 153.067 51.74C152.371 51.116 151.423 50.804 150.223 50.804H142.591L143.599 36.8H157.891V41.444H148.207L147.883 45.98Z" fill="white"/>
<path d="M583.34 103.504C580.196 103.504 577.724 102.316 575.924 99.94C574.148 97.516 573.26 94.336 573.26 90.4C573.26 86.464 574.148 83.296 575.924 80.896C577.724 78.496 580.196 77.296 583.34 77.296C586.532 77.296 589.004 78.496 590.756 80.896C592.532 83.296 593.42 86.464 593.42 90.4C593.42 94.336 592.532 97.516 590.756 99.94C589.004 102.316 586.532 103.504 583.34 103.504ZM588.488 90.4C588.488 87.712 588.044 85.66 587.156 84.244C586.292 82.828 585.02 82.12 583.34 82.12C581.66 82.12 580.388 82.828 579.524 84.244C578.66 85.66 578.228 87.712 578.228 90.4C578.228 93.088 578.66 95.14 579.524 96.556C580.388 97.948 581.66 98.644 583.34 98.644C585.02 98.644 586.292 97.936 587.156 96.52C588.044 95.104 588.488 93.064 588.488 90.4ZM610.516 77.8L604.936 85.972C607.552 86.044 609.676 86.896 611.308 88.528C612.94 90.16 613.756 92.224 613.756 94.72C613.756 97.288 612.904 99.4 611.2 101.056C609.496 102.688 607.3 103.504 604.612 103.504C601.924 103.504 599.728 102.688 598.024 101.056C596.344 99.448 595.504 97.336 595.504 94.72C595.504 92.824 595.996 91.132 596.98 89.644L604.828 77.8H610.516ZM608.824 94.72C608.824 93.52 608.428 92.548 607.636 91.804C606.844 91.036 605.836 90.652 604.612 90.652C603.388 90.652 602.38 91.024 601.588 91.768C600.82 92.512 600.436 93.496 600.436 94.72C600.436 95.944 600.82 96.94 601.588 97.708C602.38 98.452 603.388 98.824 604.612 98.824C605.836 98.824 606.844 98.452 607.636 97.708C608.428 96.94 608.824 95.944 608.824 94.72Z" fill="white"/>
<path d="M973.34 62.504C970.196 62.504 967.724 61.316 965.924 58.94C964.148 56.516 963.26 53.336 963.26 49.4C963.26 45.464 964.148 42.296 965.924 39.896C967.724 37.496 970.196 36.296 973.34 36.296C976.532 36.296 979.004 37.496 980.756 39.896C982.532 42.296 983.42 45.464 983.42 49.4C983.42 53.336 982.532 56.516 980.756 58.94C979.004 61.316 976.532 62.504 973.34 62.504ZM978.488 49.4C978.488 46.712 978.044 44.66 977.156 43.244C976.292 41.828 975.02 41.12 973.34 41.12C971.66 41.12 970.388 41.828 969.524 43.244C968.66 44.66 968.228 46.712 968.228 49.4C968.228 52.088 968.66 54.14 969.524 55.556C970.388 56.948 971.66 57.644 973.34 57.644C975.02 57.644 976.292 56.936 977.156 55.52C978.044 54.104 978.488 52.064 978.488 49.4ZM984.441 41.552V36.8H1000.71V41.012L992.181 62H986.925L995.205 41.552H984.441Z" fill="white"/>
</svg>
