<svg width="1149" height="174" viewBox="0 0 1149 174" fill="none" xmlns="http://www.w3.org/2000/svg">
<path d="M1 1L11.5944 4.16401C382.46 114.923 777.757 113.822 1148 1V1" stroke="#BFBFBF"/>
<circle cx="93" cy="42" r="41" fill="#505050"/>
<circle cx="513" cy="91" r="41" fill="#505050"/>
<circle cx="939" cy="68" r="41" fill="#505050"/>
<path d="M86.34 54.504C83.196 54.504 80.724 53.316 78.924 50.94C77.148 48.54 76.26 45.36 76.26 41.4C76.26 37.44 77.148 34.272 78.924 31.896C80.724 29.496 83.196 28.296 86.34 28.296C89.508 28.296 91.98 29.496 93.756 31.896C95.532 34.272 96.42 37.44 96.42 41.4C96.42 45.36 95.532 48.54 93.756 50.94C91.98 53.316 89.508 54.504 86.34 54.504ZM82.524 47.556C83.388 48.948 84.66 49.644 86.34 49.644C88.02 49.644 89.292 48.936 90.156 47.52C91.044 46.104 91.488 44.064 91.488 41.4C91.488 38.712 91.044 36.66 90.156 35.244C89.292 33.828 88.02 33.12 86.34 33.12C84.66 33.12 83.388 33.828 82.524 35.244C81.66 36.66 81.228 38.712 81.228 41.4C81.228 44.088 81.66 46.14 82.524 47.556ZM103.993 28.8H108.313V54H103.345V34.056L98.5927 35.388L97.3687 31.14L103.993 28.8Z" fill="white"/>
<path d="M503.34 103.504C500.196 103.504 497.724 102.316 495.924 99.94C494.148 97.54 493.26 94.36 493.26 90.4C493.26 86.44 494.148 83.272 495.924 80.896C497.724 78.496 500.196 77.296 503.34 77.296C506.508 77.296 508.98 78.496 510.756 80.896C512.532 83.272 513.42 86.44 513.42 90.4C513.42 94.36 512.532 97.54 510.756 99.94C508.98 102.316 506.508 103.504 503.34 103.504ZM499.524 96.556C500.388 97.948 501.66 98.644 503.34 98.644C505.02 98.644 506.292 97.936 507.156 96.52C508.044 95.104 508.488 93.064 508.488 90.4C508.488 87.712 508.044 85.66 507.156 84.244C506.292 82.828 505.02 82.12 503.34 82.12C501.66 82.12 500.388 82.828 499.524 84.244C498.66 85.66 498.228 87.712 498.228 90.4C498.228 93.088 498.66 95.14 499.524 96.556ZM515.015 103V99.292L523.619 90.436C525.539 88.42 526.499 86.74 526.499 85.396C526.499 84.412 526.187 83.62 525.563 83.02C524.963 82.42 524.183 82.12 523.223 82.12C521.327 82.12 519.923 83.104 519.011 85.072L514.835 82.624C515.627 80.896 516.767 79.576 518.255 78.664C519.743 77.752 521.375 77.296 523.151 77.296C525.431 77.296 527.387 78.016 529.019 79.456C530.651 80.872 531.467 82.792 531.467 85.216C531.467 87.832 530.087 90.52 527.327 93.28L522.395 98.212H531.863V103H515.015Z" fill="white"/>
<path d="M929.34 80.504C926.196 80.504 923.724 79.316 921.924 76.94C920.148 74.54 919.26 71.36 919.26 67.4C919.26 63.44 920.148 60.272 921.924 57.896C923.724 55.496 926.196 54.296 929.34 54.296C932.508 54.296 934.98 55.496 936.756 57.896C938.532 60.272 939.42 63.44 939.42 67.4C939.42 71.36 938.532 74.54 936.756 76.94C934.98 79.316 932.508 80.504 929.34 80.504ZM925.524 73.556C926.388 74.948 927.66 75.644 929.34 75.644C931.02 75.644 932.292 74.936 933.156 73.52C934.044 72.104 934.488 70.064 934.488 67.4C934.488 64.712 934.044 62.66 933.156 61.244C932.292 59.828 931.02 59.12 929.34 59.12C927.66 59.12 926.388 59.828 925.524 61.244C924.66 62.66 924.228 64.712 924.228 67.4C924.228 70.088 924.66 72.14 925.524 73.556ZM952.364 65.024C954.068 65.528 955.448 66.416 956.504 67.688C957.584 68.936 958.124 70.448 958.124 72.224C958.124 74.816 957.248 76.844 955.496 78.308C953.768 79.772 951.644 80.504 949.124 80.504C947.156 80.504 945.392 80.06 943.832 79.172C942.296 78.26 941.18 76.928 940.484 75.176L944.732 72.728C945.356 74.672 946.82 75.644 949.124 75.644C950.396 75.644 951.38 75.344 952.076 74.744C952.796 74.12 953.156 73.28 953.156 72.224C953.156 71.192 952.796 70.364 952.076 69.74C951.38 69.116 950.396 68.804 949.124 68.804H948.044L946.136 65.924L951.104 59.444H941.24V54.8H957.08V58.904L952.364 65.024Z" fill="white"/>
</svg>
