<svg width="1149" height="176" viewBox="0 0 1149 176" fill="none" xmlns="http://www.w3.org/2000/svg">
<path d="M1 3L11.5944 6.16401C382.46 116.923 777.757 115.822 1148 3V3" stroke="#BFBFBF"/>
<circle cx="512" cy="95" r="41" fill="#505050"/>
<circle cx="932" cy="70" r="41" fill="#505050"/>
<circle cx="95" cy="41" r="41" fill="#505050"/>
<path d="M502.34 107.504C499.196 107.504 496.724 106.316 494.924 103.94C493.148 101.54 492.26 98.36 492.26 94.4C492.26 90.44 493.148 87.272 494.924 84.896C496.724 82.496 499.196 81.296 502.34 81.296C505.508 81.296 507.98 82.496 509.756 84.896C511.532 87.272 512.42 90.44 512.42 94.4C512.42 98.36 511.532 101.54 509.756 103.94C507.98 106.316 505.508 107.504 502.34 107.504ZM498.524 100.556C499.388 101.948 500.66 102.644 502.34 102.644C504.02 102.644 505.292 101.936 506.156 100.52C507.044 99.104 507.488 97.064 507.488 94.4C507.488 91.712 507.044 89.66 506.156 88.244C505.292 86.828 504.02 86.12 502.34 86.12C500.66 86.12 499.388 86.828 498.524 88.244C497.66 89.66 497.228 91.712 497.228 94.4C497.228 97.088 497.66 99.14 498.524 100.556ZM523.475 90.98C525.899 90.98 527.939 91.712 529.595 93.176C531.251 94.616 532.079 96.632 532.079 99.224C532.079 101.816 531.203 103.844 529.451 105.308C527.723 106.772 525.599 107.504 523.079 107.504C521.039 107.504 519.239 107.048 517.679 106.136C516.119 105.224 514.991 103.88 514.295 102.104L518.543 99.62C519.167 101.636 520.679 102.644 523.079 102.644C524.351 102.644 525.335 102.344 526.031 101.744C526.751 101.12 527.111 100.28 527.111 99.224C527.111 98.192 526.763 97.364 526.067 96.74C525.371 96.116 524.423 95.804 523.223 95.804H515.591L516.599 81.8H530.891V86.444H521.207L520.883 90.98H523.475Z" fill="white"/>
<path d="M922.34 82.504C919.196 82.504 916.724 81.316 914.924 78.94C913.148 76.54 912.26 73.36 912.26 69.4C912.26 65.44 913.148 62.272 914.924 59.896C916.724 57.496 919.196 56.296 922.34 56.296C925.508 56.296 927.98 57.496 929.756 59.896C931.532 62.272 932.42 65.44 932.42 69.4C932.42 73.36 931.532 76.54 929.756 78.94C927.98 81.316 925.508 82.504 922.34 82.504ZM918.524 75.556C919.388 76.948 920.66 77.644 922.34 77.644C924.02 77.644 925.292 76.936 926.156 75.52C927.044 74.104 927.488 72.064 927.488 69.4C927.488 66.712 927.044 64.66 926.156 63.244C925.292 61.828 924.02 61.12 922.34 61.12C920.66 61.12 919.388 61.828 918.524 63.244C917.66 64.66 917.228 66.712 917.228 69.4C917.228 72.088 917.66 74.14 918.524 75.556ZM943.936 64.972C946.552 65.044 948.676 65.896 950.308 67.528C951.94 69.136 952.756 71.2 952.756 73.72C952.756 76.288 951.904 78.4 950.2 80.056C948.496 81.688 946.3 82.504 943.612 82.504C940.924 82.504 938.728 81.688 937.024 80.056C935.344 78.424 934.504 76.312 934.504 73.72C934.504 71.8 934.996 70.108 935.98 68.644L943.828 56.8H949.516L943.936 64.972ZM940.624 76.708C941.416 77.452 942.412 77.824 943.612 77.824C944.812 77.824 945.808 77.452 946.6 76.708C947.416 75.964 947.824 74.968 947.824 73.72C947.824 72.496 947.416 71.512 946.6 70.768C945.808 70.024 944.812 69.652 943.612 69.652C942.412 69.652 941.416 70.024 940.624 70.768C939.832 71.488 939.436 72.472 939.436 73.72C939.436 74.968 939.832 75.964 940.624 76.708Z" fill="white"/>
<path d="M85.34 53.504C82.196 53.504 79.724 52.316 77.924 49.94C76.148 47.54 75.26 44.36 75.26 40.4C75.26 36.44 76.148 33.272 77.924 30.896C79.724 28.496 82.196 27.296 85.34 27.296C88.508 27.296 90.98 28.496 92.756 30.896C94.532 33.272 95.42 36.44 95.42 40.4C95.42 44.36 94.532 47.54 92.756 49.94C90.98 52.316 88.508 53.504 85.34 53.504ZM81.524 46.556C82.388 47.948 83.66 48.644 85.34 48.644C87.02 48.644 88.292 47.936 89.156 46.52C90.044 45.104 90.488 43.064 90.488 40.4C90.488 37.712 90.044 35.66 89.156 34.244C88.292 32.828 87.02 32.12 85.34 32.12C83.66 32.12 82.388 32.828 81.524 34.244C80.66 35.66 80.228 37.712 80.228 40.4C80.228 43.088 80.66 45.14 81.524 46.556ZM117.052 44.108V48.716H114.352V53H109.348V48.716H97.4318V44.108L105.82 27.8H111.148L102.796 44.108H109.348V38.132H114.352V44.108H117.052Z" fill="white"/>
</svg>
