<svg width="1149" height="188" viewBox="0 0 1149 188" fill="none" xmlns="http://www.w3.org/2000/svg">
<path d="M1 15L11.5944 18.164C382.46 128.923 777.757 127.822 1148 15V15" stroke="#BFBFBF"/>
<circle cx="54" cy="41" r="41" fill="#505050"/>
<circle cx="400" cy="102" r="41" fill="#505050"/>
<circle cx="746" cy="102" r="41" fill="#505050"/>
<circle cx="1092" cy="41" r="41" fill="#505050"/>
<path d="M44.34 53.504C41.196 53.504 38.724 52.316 36.924 49.94C35.148 47.54 34.26 44.36 34.26 40.4C34.26 36.44 35.148 33.272 36.924 30.896C38.724 28.496 41.196 27.296 44.34 27.296C47.508 27.296 49.98 28.496 51.756 30.896C53.532 33.272 54.42 36.44 54.42 40.4C54.42 44.36 53.532 47.54 51.756 49.94C49.98 52.316 47.508 53.504 44.34 53.504ZM40.524 46.556C41.388 47.948 42.66 48.644 44.34 48.644C46.02 48.644 47.292 47.936 48.156 46.52C49.044 45.104 49.488 43.064 49.488 40.4C49.488 37.712 49.044 35.66 48.156 34.244C47.292 32.828 46.02 32.12 44.34 32.12C42.66 32.12 41.388 32.828 40.524 34.244C39.66 35.66 39.228 37.712 39.228 40.4C39.228 43.088 39.66 45.14 40.524 46.556ZM65.4745 36.98C67.8985 36.98 69.9385 37.712 71.5945 39.176C73.2505 40.616 74.0785 42.632 74.0785 45.224C74.0785 47.816 73.2025 49.844 71.4505 51.308C69.7225 52.772 67.5985 53.504 65.0785 53.504C63.0385 53.504 61.2385 53.048 59.6785 52.136C58.1185 51.224 56.9905 49.88 56.2945 48.104L60.5425 45.62C61.1665 47.636 62.6785 48.644 65.0785 48.644C66.3505 48.644 67.3345 48.344 68.0305 47.744C68.7505 47.12 69.1105 46.28 69.1105 45.224C69.1105 44.192 68.7625 43.364 68.0665 42.74C67.3705 42.116 66.4225 41.804 65.2225 41.804H57.5905L58.5985 27.8H72.8905V32.444H63.2065L62.8825 36.98H65.4745Z" fill="white"/>
<path d="M390.34 114.504C387.196 114.504 384.724 113.316 382.924 110.94C381.148 108.54 380.26 105.36 380.26 101.4C380.26 97.44 381.148 94.272 382.924 91.896C384.724 89.496 387.196 88.296 390.34 88.296C393.508 88.296 395.98 89.496 397.756 91.896C399.532 94.272 400.42 97.44 400.42 101.4C400.42 105.36 399.532 108.54 397.756 110.94C395.98 113.316 393.508 114.504 390.34 114.504ZM386.524 107.556C387.388 108.948 388.66 109.644 390.34 109.644C392.02 109.644 393.292 108.936 394.156 107.52C395.044 106.104 395.488 104.064 395.488 101.4C395.488 98.712 395.044 96.66 394.156 95.244C393.292 93.828 392.02 93.12 390.34 93.12C388.66 93.12 387.388 93.828 386.524 95.244C385.66 96.66 385.228 98.712 385.228 101.4C385.228 104.088 385.66 106.14 386.524 107.556ZM411.936 96.972C414.552 97.044 416.676 97.896 418.308 99.528C419.94 101.136 420.756 103.2 420.756 105.72C420.756 108.288 419.904 110.4 418.2 112.056C416.496 113.688 414.3 114.504 411.612 114.504C408.924 114.504 406.728 113.688 405.024 112.056C403.344 110.424 402.504 108.312 402.504 105.72C402.504 103.8 402.996 102.108 403.98 100.644L411.828 88.8H417.516L411.936 96.972ZM408.624 108.708C409.416 109.452 410.412 109.824 411.612 109.824C412.812 109.824 413.808 109.452 414.6 108.708C415.416 107.964 415.824 106.968 415.824 105.72C415.824 104.496 415.416 103.512 414.6 102.768C413.808 102.024 412.812 101.652 411.612 101.652C410.412 101.652 409.416 102.024 408.624 102.768C407.832 103.488 407.436 104.472 407.436 105.72C407.436 106.968 407.832 107.964 408.624 108.708Z" fill="white"/>
<path d="M737.34 114.504C734.196 114.504 731.724 113.316 729.924 110.94C728.148 108.54 727.26 105.36 727.26 101.4C727.26 97.44 728.148 94.272 729.924 91.896C731.724 89.496 734.196 88.296 737.34 88.296C740.508 88.296 742.98 89.496 744.756 91.896C746.532 94.272 747.42 97.44 747.42 101.4C747.42 105.36 746.532 108.54 744.756 110.94C742.98 113.316 740.508 114.504 737.34 114.504ZM733.524 107.556C734.388 108.948 735.66 109.644 737.34 109.644C739.02 109.644 740.292 108.936 741.156 107.52C742.044 106.104 742.488 104.064 742.488 101.4C742.488 98.712 742.044 96.66 741.156 95.244C740.292 93.828 739.02 93.12 737.34 93.12C735.66 93.12 734.388 93.828 733.524 95.244C732.66 96.66 732.228 98.712 732.228 101.4C732.228 104.088 732.66 106.14 733.524 107.556ZM748.441 88.8H764.713V93.012L756.181 114H750.925L759.205 93.552H748.441V88.8Z" fill="white"/>
<path d="M1081.34 53.504C1078.2 53.504 1075.72 52.316 1073.92 49.94C1072.15 47.54 1071.26 44.36 1071.26 40.4C1071.26 36.44 1072.15 33.272 1073.92 30.896C1075.72 28.496 1078.2 27.296 1081.34 27.296C1084.51 27.296 1086.98 28.496 1088.76 30.896C1090.53 33.272 1091.42 36.44 1091.42 40.4C1091.42 44.36 1090.53 47.54 1088.76 49.94C1086.98 52.316 1084.51 53.504 1081.34 53.504ZM1077.52 46.556C1078.39 47.948 1079.66 48.644 1081.34 48.644C1083.02 48.644 1084.29 47.936 1085.16 46.52C1086.04 45.104 1086.49 43.064 1086.49 40.4C1086.49 37.712 1086.04 35.66 1085.16 34.244C1084.29 32.828 1083.02 32.12 1081.34 32.12C1079.66 32.12 1078.39 32.828 1077.52 34.244C1076.66 35.66 1076.23 37.712 1076.23 40.4C1076.23 43.088 1076.66 45.14 1077.52 46.556ZM1108.44 39.896C1110.77 41.288 1111.94 43.316 1111.94 45.98C1111.94 48.308 1111.12 50.144 1109.49 51.488C1107.88 52.832 1105.68 53.504 1102.9 53.504C1100.09 53.504 1097.88 52.832 1096.28 51.488C1094.67 50.144 1093.86 48.308 1093.86 45.98C1093.86 43.316 1095.02 41.288 1097.32 39.896C1095.57 38.624 1094.69 36.884 1094.69 34.676C1094.69 32.348 1095.47 30.536 1097.03 29.24C1098.62 27.944 1100.57 27.296 1102.9 27.296C1105.23 27.296 1107.17 27.944 1108.73 29.24C1110.29 30.536 1111.07 32.348 1111.07 34.676C1111.07 36.908 1110.2 38.648 1108.44 39.896ZM1105.24 32.768C1104.64 32.24 1103.86 31.976 1102.9 31.976C1101.94 31.976 1101.16 32.24 1100.56 32.768C1099.96 33.296 1099.66 34.016 1099.66 34.928C1099.66 35.84 1099.96 36.572 1100.56 37.124C1101.16 37.652 1101.94 37.916 1102.9 37.916C1103.86 37.916 1104.64 37.652 1105.24 37.124C1105.84 36.572 1106.14 35.84 1106.14 34.928C1106.14 34.016 1105.84 33.296 1105.24 32.768ZM1099.91 47.924C1100.68 48.524 1101.68 48.824 1102.9 48.824C1104.12 48.824 1105.11 48.524 1105.85 47.924C1106.62 47.3 1107 46.436 1107 45.332C1107 44.252 1106.62 43.412 1105.85 42.812C1105.11 42.188 1104.12 41.876 1102.9 41.876C1101.68 41.876 1100.68 42.188 1099.91 42.812C1099.17 43.412 1098.8 44.252 1098.8 45.332C1098.8 46.436 1099.17 47.3 1099.91 47.924Z" fill="white"/>
</svg>
