<svg width="1149" height="188" viewBox="0 0 1149 188" fill="none" xmlns="http://www.w3.org/2000/svg">
<path d="M1 15L11.5944 18.164C382.46 128.923 777.757 127.822 1148 15V15" stroke="#BFBFBF"/>
<circle cx="54" cy="41" r="41" fill="#505050"/>
<circle cx="1079" cy="48" r="41" fill="#505050"/>
<circle cx="400" cy="102" r="41" fill="#505050"/>
<circle cx="766" cy="91" r="41" fill="#505050"/>
<path d="M47.34 53.504C44.196 53.504 41.724 52.316 39.924 49.94C38.148 47.54 37.26 44.36 37.26 40.4C37.26 36.44 38.148 33.272 39.924 30.896C41.724 28.496 44.196 27.296 47.34 27.296C50.508 27.296 52.98 28.496 54.756 30.896C56.532 33.272 57.42 36.44 57.42 40.4C57.42 44.36 56.532 47.54 54.756 49.94C52.98 52.316 50.508 53.504 47.34 53.504ZM43.524 46.556C44.388 47.948 45.66 48.644 47.34 48.644C49.02 48.644 50.292 47.936 51.156 46.52C52.044 45.104 52.488 43.064 52.488 40.4C52.488 37.712 52.044 35.66 51.156 34.244C50.292 32.828 49.02 32.12 47.34 32.12C45.66 32.12 44.388 32.828 43.524 34.244C42.66 35.66 42.228 37.712 42.228 40.4C42.228 43.088 42.66 45.14 43.524 46.556ZM64.9927 27.8H69.3127V53H64.3447V33.056L59.5927 34.388L58.3687 30.14L64.9927 27.8Z" fill="white"/>
<path d="M1069.34 58.504C1066.2 58.504 1063.72 57.316 1061.92 54.94C1060.15 52.516 1059.26 49.336 1059.26 45.4C1059.26 41.464 1060.15 38.296 1061.92 35.896C1063.72 33.496 1066.2 32.296 1069.34 32.296C1072.53 32.296 1075 33.496 1076.76 35.896C1078.53 38.296 1079.42 41.464 1079.42 45.4C1079.42 49.336 1078.53 52.516 1076.76 54.94C1075 57.316 1072.53 58.504 1069.34 58.504ZM1074.49 45.4C1074.49 42.712 1074.04 40.66 1073.16 39.244C1072.29 37.828 1071.02 37.12 1069.34 37.12C1067.66 37.12 1066.39 37.828 1065.52 39.244C1064.66 40.66 1064.23 42.712 1064.23 45.4C1064.23 48.088 1064.66 50.14 1065.52 51.556C1066.39 52.948 1067.66 53.644 1069.34 53.644C1071.02 53.644 1072.29 52.936 1073.16 51.52C1074.04 50.104 1074.49 48.064 1074.49 45.4ZM1098.35 49.108H1101.05V53.716H1098.35V58H1093.35V53.716H1081.43V49.108L1089.82 32.8H1095.15L1086.8 49.108H1093.35V43.132H1098.35V49.108Z" fill="white"/>
<path d="M390.34 114.504C387.196 114.504 384.724 113.316 382.924 110.94C381.148 108.54 380.26 105.36 380.26 101.4C380.26 97.44 381.148 94.272 382.924 91.896C384.724 89.496 387.196 88.296 390.34 88.296C393.508 88.296 395.98 89.496 397.756 91.896C399.532 94.272 400.42 97.44 400.42 101.4C400.42 105.36 399.532 108.54 397.756 110.94C395.98 113.316 393.508 114.504 390.34 114.504ZM386.524 107.556C387.388 108.948 388.66 109.644 390.34 109.644C392.02 109.644 393.292 108.936 394.156 107.52C395.044 106.104 395.488 104.064 395.488 101.4C395.488 98.712 395.044 96.66 394.156 95.244C393.292 93.828 392.02 93.12 390.34 93.12C388.66 93.12 387.388 93.828 386.524 95.244C385.66 96.66 385.228 98.712 385.228 101.4C385.228 104.088 385.66 106.14 386.524 107.556ZM402.015 114V110.292L410.619 101.436C412.539 99.42 413.499 97.74 413.499 96.396C413.499 95.412 413.187 94.62 412.563 94.02C411.963 93.42 411.183 93.12 410.223 93.12C408.327 93.12 406.923 94.104 406.011 96.072L401.835 93.624C402.627 91.896 403.767 90.576 405.255 89.664C406.743 88.752 408.375 88.296 410.151 88.296C412.431 88.296 414.387 89.016 416.019 90.456C417.651 91.872 418.467 93.792 418.467 96.216C418.467 98.832 417.087 101.52 414.327 104.28L409.395 109.212H418.863V114H402.015Z" fill="white"/>
<path d="M756.34 101.504C753.196 101.504 750.724 100.316 748.924 97.94C747.148 95.516 746.26 92.336 746.26 88.4C746.26 84.464 747.148 81.296 748.924 78.896C750.724 76.496 753.196 75.296 756.34 75.296C759.532 75.296 762.004 76.496 763.756 78.896C765.532 81.296 766.42 84.464 766.42 88.4C766.42 92.336 765.532 95.516 763.756 97.94C762.004 100.316 759.532 101.504 756.34 101.504ZM761.488 88.4C761.488 85.712 761.044 83.66 760.156 82.244C759.292 80.828 758.02 80.12 756.34 80.12C754.66 80.12 753.388 80.828 752.524 82.244C751.66 83.66 751.228 85.712 751.228 88.4C751.228 91.088 751.66 93.14 752.524 94.556C753.388 95.948 754.66 96.644 756.34 96.644C758.02 96.644 759.292 95.936 760.156 94.52C761.044 93.104 761.488 91.064 761.488 88.4ZM784.08 79.904L779.364 86.024C781.116 86.528 782.508 87.416 783.54 88.688C784.596 89.96 785.124 91.472 785.124 93.224C785.124 95.816 784.248 97.844 782.496 99.308C780.792 100.772 778.668 101.504 776.124 101.504C774.132 101.504 772.368 101.048 770.832 100.136C769.296 99.2 768.18 97.88 767.484 96.176L771.732 93.728C772.332 95.672 773.796 96.644 776.124 96.644C777.396 96.644 778.38 96.344 779.076 95.744C779.796 95.12 780.156 94.28 780.156 93.224C780.156 92.192 779.796 91.364 779.076 90.74C778.38 90.116 777.396 89.804 776.124 89.804H775.044L773.136 86.924L778.104 80.444H768.24V75.8H784.08V79.904Z" fill="white"/>
</svg>
