<svg width="36" height="36" viewBox="0 0 36 36" fill="none" xmlns="http://www.w3.org/2000/svg">
<circle cx="18" cy="18" r="18" fill="#2A2A2A"/>
<path d="M18.0012 8.8335C23.0639 8.8335 27.1678 12.9374 27.1678 18.0002C27.1678 23.0629 23.0639 27.1668 18.0012 27.1668C16.3812 27.1696 14.7897 26.7409 13.3903 25.9247L8.83815 27.1668L10.0775 22.6128C9.2607 21.213 8.83165 19.6208 8.83449 18.0002C8.83449 12.9374 12.9384 8.8335 18.0012 8.8335ZM14.8772 13.6918L14.6938 13.6992C14.5753 13.7073 14.4595 13.7385 14.3528 13.7908C14.2534 13.8472 14.1627 13.9176 14.0833 13.9998C13.9733 14.1034 13.911 14.1932 13.8441 14.2803C13.505 14.7212 13.3225 15.2624 13.3252 15.8185C13.3271 16.2677 13.4444 16.7049 13.6277 17.1137C14.0027 17.9406 14.6196 18.816 15.4336 19.6272C15.6297 19.8225 15.8222 20.0187 16.0294 20.2011C17.0409 21.0915 18.2462 21.7337 19.5494 22.0766L20.0701 22.1563C20.2397 22.1655 20.4092 22.1527 20.5797 22.1444C20.8467 22.1303 21.1073 22.0581 21.3433 21.9327C21.4633 21.8706 21.5804 21.8034 21.6944 21.731C21.6944 21.731 21.7332 21.7047 21.809 21.6485C21.9327 21.5568 22.0088 21.4917 22.1115 21.3845C22.1885 21.3051 22.2527 21.2128 22.304 21.1077C22.3755 20.9582 22.447 20.6732 22.4763 20.4357C22.4983 20.2542 22.4919 20.1552 22.4892 20.0938C22.4855 19.9957 22.4039 19.894 22.315 19.8509L21.7815 19.6117C21.7815 19.6117 20.984 19.2642 20.4963 19.0424C20.4453 19.0202 20.3906 19.0075 20.335 19.0048C20.2723 18.9983 20.2089 19.0053 20.1491 19.0254C20.0893 19.0454 20.0345 19.0781 19.9885 19.1212C19.9839 19.1194 19.9225 19.1717 19.2597 19.9747C19.2217 20.0258 19.1693 20.0644 19.1092 20.0856C19.0491 20.1069 18.9841 20.1097 18.9224 20.0938C18.8627 20.0779 18.8041 20.0577 18.7473 20.0333C18.6337 19.9857 18.5942 19.9673 18.5163 19.9343C17.99 19.7051 17.5029 19.3949 17.0726 19.0149C16.9571 18.9141 16.8498 18.8041 16.7398 18.6977C16.3792 18.3524 16.0649 17.9617 15.8048 17.5354L15.7507 17.4483C15.7125 17.3895 15.6811 17.3264 15.6572 17.2604C15.6224 17.1257 15.7132 17.0175 15.7132 17.0175C15.7132 17.0175 15.9359 16.7737 16.0395 16.6417C16.1403 16.5133 16.2256 16.3887 16.2806 16.2997C16.3887 16.1256 16.4227 15.9468 16.3658 15.8084C16.1092 15.1814 15.8439 14.5578 15.5702 13.9375C15.5161 13.8147 15.3557 13.7267 15.2099 13.7092C15.1604 13.7031 15.1109 13.6982 15.0614 13.6946C14.9383 13.6875 14.8149 13.6887 14.692 13.6982L14.8772 13.6918Z" fill="white"/>
</svg>
